<?xml version="1.0" encoding="UTF-8"?>
<svg id="Layer_1" data-name="Layer 1" xmlns="http://www.w3.org/2000/svg" viewBox="0 0 1445.47 203.26">
  <defs>
    <style>
      .cls-1 {
        fill: #071636;
      }
    </style>
  </defs>
  <rect class="cls-1" x="905.83" y="81.18" width="172.24" height="7.63" rx="3.03" ry="3.03"/>
  <path class="cls-1" d="M1431.05,64.12c-13.59-2.12-68.15-2.1-82.02-.22-6.27.85-6.93,4.94-11.36,5.8-3,.58-19.95.74-22.55.11-2.24-.55-3.96-12.2-9.82-11.53-5.76,6.07-7.22,14.88-6.71,22.89h-166.68c-1.02,0-1.85.83-1.85,1.85v3.92c0,1.02.83,1.85,1.85,1.85h166.69c-.92,4.69,2.29,23.79,6.7,24.79,5.75,1.31,5.21-10.25,11.38-11.47,16.35-3.25,25.2,4.33,38.18,5.76,13.64,1.51,71.93,1.57,81.77-4.07,3.88-2.22,5.78-6.31,8.84-9.29v-17.17c-4.81-5.92-5.56-11.86-14.42-13.24Z"/>
  <path class="cls-1" d="M879.45,203.26h-19.87c-5.95-10.64-6.08-27.04,10.5-22.88-1.71-20.37-1.51-43.47-5.87-63.43-.36-1.66-3.38-.78-3.82-4.17-1.13-8.7,1.43-20.11.24-28.83-1.36-9.95-11.74-27.92-3.33-38.46,2.33-2.91,12.12-6.71,13.81-10.09,2.84-5.68-2.28-10.91-2.86-16.42-.73-7.02,2.52-15.21,8.14-18.1C877.56.27,878.86,0,880.17,0h.04c1.1,0,2.2.17,3.2.62,5.95,2.61,9.46,11.06,8.76,18.29-.54,5.52-5.63,10.78-2.75,16.44,1.71,3.37,11.53,7.1,13.87,10,8.47,10.48-1.8,28.52-3.09,38.48-1.13,8.74,1.5,20.13.43,28.83-.42,3.4-3.44,2.53-3.8,4.2-4.24,19.99-3.89,43.08-5.47,63.46,16.56-4.26,16.54,12.14,10.65,22.81l-19.87.13h-2.68Z"/>
  <path class="cls-1" d="M1102.9,203.26h-19.87c-5.95-10.64-6.08-27.04,10.5-22.88-1.71-20.37-1.51-43.47-5.87-63.43-.36-1.66-3.38-.78-3.82-4.17-1.13-8.7,1.43-20.11.24-28.83-1.36-9.95-11.74-27.92-3.33-38.46,2.33-2.91,12.12-6.71,13.81-10.09,2.84-5.68-2.28-10.91-2.86-16.42-.73-7.02,2.52-15.21,8.14-18.1C1101,.27,1102.31,0,1103.62,0h.04c1.1,0,2.2.17,3.2.62,5.95,2.61,9.46,11.06,8.76,18.29-.54,5.52-5.63,10.78-2.75,16.44,1.71,3.37,11.53,7.1,13.87,10,8.47,10.48-1.8,28.52-3.09,38.48-1.13,8.74,1.5,20.13.43,28.83-.42,3.4-3.44,2.53-3.8,4.2-4.24,19.99-3.89,43.08-5.47,63.46,16.56-4.26,16.54,12.14,10.65,22.81l-19.87.13h-2.68Z"/>
  <rect class="cls-1" x="682.38" y="81.18" width="172.24" height="7.63" rx="3.03" ry="3.03"/>
  <path class="cls-1" d="M181.62,81.18H19.42c-.28,0-.51-.2-.55-.48-.26-1.59-.76-3.14-1.54-4.56-3.64-6.61-9.13-4.9-15.62-4.68-.95.03-1.71,1.08-1.71,2.36v22.34c0,1.28.76,2.33,1.71,2.36,7.18.24,13.13,2.31,16.71-7.08.27-.7.31-1.45.45-2.18.05-.26.28-.46.55-.46h162.2c1.63,0,2.96-1.32,2.96-2.96v-1.71c0-1.63-1.32-2.96-2.96-2.96Z"/>
  <path class="cls-1" d="M208.91,203.26h-19.87c-5.95-10.64-6.08-27.04,10.5-22.88-1.71-20.37-1.51-43.47-5.87-63.43-.36-1.66-3.38-.78-3.82-4.17-1.13-8.7,1.43-20.11.24-28.83-1.36-9.95-11.74-27.92-3.33-38.46,2.33-2.91,12.12-6.71,13.81-10.09,2.84-5.68-2.28-10.91-2.86-16.42-.73-7.02,2.52-15.21,8.14-18.1C207.02.27,208.32,0,209.63,0h.04C210.77,0,211.87.17,212.88.62c5.95,2.61,9.46,11.06,8.76,18.29-.54,5.52-5.63,10.78-2.75,16.44,1.71,3.37,11.53,7.1,13.87,10,8.47,10.48-1.8,28.52-3.09,38.48-1.13,8.74,1.5,20.13.43,28.83-.42,3.4-3.44,2.53-3.8,4.2-4.24,19.99-3.89,43.08-5.47,63.46,16.56-4.26,16.54,12.14,10.65,22.81l-19.87.13h-2.68Z"/>
  <rect class="cls-1" x="458.94" y="81.18" width="172.24" height="7.63" rx="3.03" ry="3.03" transform="translate(1090.12 169.99) rotate(-180)"/>
  <path class="cls-1" d="M657.56,203.26h19.87c5.95-10.64,6.08-27.04-10.5-22.88,1.71-20.37,1.51-43.47,5.87-63.43.36-1.66,3.38-.78,3.82-4.17,1.13-8.7-1.43-20.11-.24-28.83,1.36-9.95,11.74-27.92,3.33-38.46-2.33-2.91-12.12-6.71-13.81-10.09-2.84-5.68,2.28-10.91,2.86-16.42.73-7.02-2.52-15.21-8.14-18.1C659.45.27,658.15,0,656.84,0h-.04c-1.1,0-2.2.17-3.2.62-5.95,2.61-9.46,11.06-8.76,18.29.54,5.52,5.63,10.78,2.75,16.44-1.71,3.37-11.53,7.1-13.87,10-8.47,10.48,1.8,28.52,3.09,38.48,1.13,8.74-1.5,20.13-.43,28.83.42,3.4,3.44,2.53,3.8,4.2,4.24,19.99,3.89,43.08,5.47,63.46-16.56-4.26-16.54,12.14-10.65,22.81l19.87.13h2.68Z"/>
  <path class="cls-1" d="M434.11,203.26h19.87c5.95-10.64,6.08-27.04-10.5-22.88,1.71-20.37,1.51-43.47,5.87-63.43.36-1.66,3.38-.78,3.82-4.17,1.13-8.7-1.43-20.11-.24-28.83,1.36-9.95,11.74-27.92,3.33-38.46-2.33-2.91-12.12-6.71-13.81-10.09-2.84-5.68,2.28-10.91,2.86-16.42.73-7.02-2.52-15.21-8.14-18.1C436.01.27,434.7,0,433.39,0h-.04c-1.1,0-2.2.17-3.2.62-5.95,2.61-9.46,11.06-8.76,18.29.54,5.52,5.63,10.78,2.75,16.44-1.71,3.37-11.53,7.1-13.87,10-8.47,10.48,1.8,28.52,3.09,38.48,1.13,8.74-1.5,20.13-.43,28.83.42,3.4,3.44,2.53,3.8,4.2,4.24,19.99,3.89,43.08,5.47,63.46-16.56-4.26-16.54,12.14-10.65,22.81l19.87.13h2.68Z"/>
  <rect class="cls-1" x="235.5" y="81.18" width="172.24" height="7.63" rx="3.03" ry="3.03" transform="translate(643.23 169.99) rotate(-180)"/>
</svg>